<?xml version="1.0" encoding="UTF-8"?><svg id="Camada_2" xmlns="http://www.w3.org/2000/svg" viewBox="0 0 348 116.69"><defs><style>.cls-1{fill:#ffffff;}</style></defs><g id="Camada_1-2"><path class="cls-1" d="M345.94,2.24h-77.94c-1.14,0-2.06,.92-2.06,2.06V79.81s1.14,1.54,10.95-1.98c-8.42,8.42-20.13,11.85-23.46,12.82-3.85,1.12-8.23,1.68-13.14,1.68-12.29,0-21.37-2.97-27.25-8.9-5.88-5.93-8.82-14.19-8.82-24.77s2.94-18.97,8.82-25.17c5.88-6.2,14.91-9.3,27.09-9.3,3.74,0,8.17,.59,13.3,1.76,1.39,.32,2.78,.68,4.16,1.07,1.31,.37,2.61-.62,2.61-1.99V4.23c0-.98-.69-1.84-1.65-2.04-7.22-1.45-14.75-2.19-22.59-2.19-11.97,0-22.74,2.22-32.3,6.65-9.56,4.43-17.1,11.06-22.6,19.88-3.41,5.46-5.76,11.65-7.05,18.57l-.04,.06-8.45,38.51h-.64l-15.58-50.32c-.27-.86-1.07-1.45-1.97-1.45h-22.05c-.94,0-1.76,.63-2,1.54l-13.22,50.4h-.64l-11.34-51.12c-.21-.94-1.05-1.62-2.01-1.62h-23.58c-1.35,0-2.33,1.27-2,2.57l5.04,19.85c-.96-.53-1.94-1.04-2.97-1.5-5.61-2.51-12.96-4.83-22.04-6.97-5.13-1.28-8.9-2.3-11.3-3.05-2.4-.75-4.46-1.92-6.17-3.53-1.71-1.6-2.57-3.74-2.57-6.41,0-5.88,5.45-8.82,16.35-8.82,7.69,0,21.25,3.08,21.25,3.08,1.16,.23,2.32-.56,2.45-1.8l2.02-19.91c.11-1.07-.62-2.03-1.67-2.24-.97-.19-1.97-.37-2.99-.53-7.75-1.23-15.42-1.84-23-1.84C31.63,0,20.84,2.89,12.5,8.66,4.17,14.43,0,23.4,0,35.58c0,8.01,1.84,14.32,5.53,18.91,3.69,4.6,8.15,7.96,13.38,10.1,5.24,2.14,12.34,4.33,21.32,6.57,7.8,1.92,13.17,3.74,16.11,5.45,2.94,1.71,4.41,4.22,4.41,7.53,0,2.46-1.12,4.52-3.37,6.17-2.24,1.66-6.79,2.48-13.62,2.48-7.69,0-14.8-1.04-21.32-3.13-5.6-1.79-11.09-3.92-16.45-6.38-1.29-.59-2.78,.24-2.93,1.65L.8,106.57c-.09,.88,.37,1.73,1.18,2.1,10.83,4.93,24.87,7.39,42.11,7.39,14.21,0,25.57-2.89,34.06-8.66,5.48-3.72,9.19-8.79,11.13-15.19,.03-.11,.08-.22,.13-.32l1.48-2.83-1.38,19.18c-.02,.22,0,.44,.06,.66l1.02,4c.23,.91,1.06,1.56,2,1.56h27.64c.91,0,1.71-.6,1.98-1.47l13.34-44.22h.32l13.34,44.22c.26,.87,1.07,1.47,1.98,1.47h27.64c.94,0,1.77-.64,2-1.56l9.67-38.08c.15-.6,1.04-.47,1.01,.15l-1.03,25.85c-.03,.63,.23,1.24,.71,1.65,3.4,2.93,7.2,5.45,11.44,7.5,9.3,4.49,19.88,6.73,31.74,6.73,8.01,0,15.31-.64,21.88-1.92,3.58-.7,6.8-1.5,9.7-2.38,0,1.14,.92,2.06,2.06,2.06h25.21c1.14,0,2.06-.92,2.06-2.06v-37.39c0-1.14,.92-2.06,2.06-2.06h41.24c1.14,0,2.06-.92,2.06-2.06v-18.64c0-1.14-.92-2.06-2.06-2.06h-41.24c-1.14,0-2.06-.92-2.06-2.06V27.07c0-1.14,.92-2.06,2.06-2.06h48.61c1.14,0,2.06-.92,2.06-2.06V4.31c0-1.14-.92-2.06-2.06-2.06Z"/></g></svg>